<svg version="1.1" id="Layer_1" xmlns="http://www.w3.org/2000/svg" xmlns:xlink="http://www.w3.org/1999/xlink" width="100%" viewBox="31 27 192 192" xml:space="preserve">
<defs>
&#x9;<clipPath id="roundedClip">
&#x9;&#x9;<rect x="31" y="27" width="192" height="192" rx="42" ry="42"></rect>
&#x9;</clipPath>
</defs>
<g clip-path="url(#roundedClip)">
<path fill="#0a2852" opacity="1.000000" stroke="none" d="&#xA;M103.002289,219.000092&#xA;&#x9;C90.067650,219.466675 77.788574,218.720139 66.490410,212.849625&#xA;&#x9;C43.847748,201.084534 31.598326,182.435867 31.093391,156.835556&#xA;&#x9;C30.649961,134.353638 30.945732,111.855911 31.013353,89.365463&#xA;&#x9;C31.116941,54.912178 58.850487,27.128141 93.259773,27.014671&#xA;&#x9;C115.750183,26.940504 138.241241,26.940922 160.731644,27.014563&#xA;&#x9;C195.173035,27.127333 222.886429,54.904427 222.987213,89.400963&#xA;&#x9;C223.052429,111.724831 223.041504,134.049133 222.989960,156.373093&#xA;&#x9;C222.909576,191.194366 195.253891,218.893127 160.477890,218.990128&#xA;&#x9;C141.485977,219.043106 122.493797,218.999924 103.002289,219.000092&#xA;M119.941696,146.264053&#xA;&#x9;C117.482147,155.236435 114.856735,164.169342 112.703514,173.214645&#xA;&#x9;C112.274750,175.015793 113.652458,177.246948 114.197174,179.279816&#xA;&#x9;C116.207092,178.652603 118.862976,178.639038 120.129585,177.305725&#xA;&#x9;C137.762756,158.743774 155.255264,140.046814 172.611938,121.225883&#xA;&#x9;C174.194611,119.509682 174.608780,116.715904 175.565582,114.422523&#xA;&#x9;C173.195969,113.608864 170.840378,112.143570 168.454376,112.092270&#xA;&#x9;C156.995316,111.845871 145.528030,111.981552 133.695999,111.981552&#xA;&#x9;C134.000366,110.242455 134.125977,108.940620 134.462097,107.695618&#xA;&#x9;C137.408691,96.781479 140.399872,85.879387 143.360504,74.969025&#xA;&#x9;C144.039688,72.466179 144.620560,69.472160 141.443787,68.748184&#xA;&#x9;C139.710526,68.353188 136.970993,69.530266 135.595261,70.907402&#xA;&#x9;C129.960709,76.547745 124.712143,82.571480 119.255554,88.392265&#xA;&#x9;C107.315414,101.129341 95.264915,113.764267 83.453682,126.619347&#xA;&#x9;C81.847816,128.367126 81.356987,131.139404 80.349876,133.437332&#xA;&#x9;C82.705353,134.297699 85.027046,135.767365 87.422867,135.900192&#xA;&#x9;C93.730240,136.249893 100.069839,136.018448 106.396599,136.018463&#xA;&#x9;C111.619011,136.018463 116.841423,136.018463 122.613380,136.018463&#xA;&#x9;C121.594292,139.733551 120.810402,142.591187 119.941696,146.264053&#xA;z"></path>
<path fill="#F6FAFD" opacity="1.000000" stroke="none" d="&#xA;M119.984108,145.856445&#xA;&#x9;C120.810402,142.591187 121.594292,139.733551 122.613380,136.018463&#xA;&#x9;C116.841423,136.018463 111.619011,136.018463 106.396599,136.018463&#xA;&#x9;C100.069839,136.018448 93.730240,136.249893 87.422867,135.900192&#xA;&#x9;C85.027046,135.767365 82.705353,134.297699 80.349869,133.437332&#xA;&#x9;C81.356987,131.139404 81.847816,128.367126 83.453682,126.619347&#xA;&#x9;C95.264915,113.764267 107.315414,101.129341 119.255554,88.392265&#xA;&#x9;C124.712143,82.571480 129.960709,76.547745 135.595261,70.907402&#xA;&#x9;C136.970993,69.530266 139.710526,68.353188 141.443787,68.748184&#xA;&#x9;C144.620560,69.472160 144.039688,72.466179 143.360504,74.969025&#xA;&#x9;C140.399872,85.879387 137.408691,96.781479 134.462097,107.695618&#xA;&#x9;C134.125977,108.940620 134.000366,110.242455 133.695999,111.981552&#xA;&#x9;C145.528030,111.981552 156.995316,111.845871 168.454376,112.092270&#xA;&#x9;C170.840378,112.143570 173.195969,113.608864 175.565582,114.422523&#xA;&#x9;C174.608780,116.715904 174.194611,119.509682 172.611938,121.225883&#xA;&#x9;C155.255264,140.046814 137.762756,158.743774 120.129585,177.305725&#xA;&#x9;C118.862976,178.639038 116.207092,178.652603 114.197174,179.279816&#xA;&#x9;C113.652458,177.246948 112.274750,175.015793 112.703514,173.214645&#xA;&#x9;C114.856735,164.169342 117.482147,155.236435 119.984108,145.856445&#xA;M111.798363,108.288353&#xA;&#x9;C105.874237,114.606529 99.950111,120.924713 93.331879,127.983162&#xA;&#x9;C104.226425,127.983162 113.857796,127.982239 123.489174,127.983452&#xA;&#x9;C131.945450,127.984512 132.950958,129.289810 130.744644,137.351196&#xA;&#x9;C128.745209,144.656723 126.759911,151.966141 124.768372,159.273834&#xA;&#x9;C125.053291,159.409027 125.338203,159.544205 125.623123,159.679398&#xA;&#x9;C137.731918,146.693192 149.840714,133.707001 162.605927,120.016823&#xA;&#x9;C151.566132,120.016823 141.757370,120.025436 131.948624,120.014069&#xA;&#x9;C124.231537,120.005119 123.116730,118.518181 125.130974,111.055710&#xA;&#x9;C127.128151,103.656456 129.102890,96.251160 131.087463,88.848511&#xA;&#x9;C130.786667,88.710114 130.485886,88.571709 130.185089,88.433304&#xA;&#x9;C124.223015,94.884460 118.260948,101.335609 111.798363,108.288353&#xA;z"></path>
<path fill="#071d3e" opacity="1.000000" stroke="none" d="&#xA;M112.048622,108.037560&#xA;&#x9;C118.260948,101.335609 124.223015,94.884460 130.185089,88.433304&#xA;&#x9;C130.485886,88.571709 130.786667,88.710114 131.087463,88.848511&#xA;&#x9;C129.102890,96.251160 127.128151,103.656456 125.130974,111.055710&#xA;&#x9;C123.116730,118.518181 124.231537,120.005119 131.948624,120.014069&#xA;&#x9;C141.757370,120.025436 151.566132,120.016823 162.605927,120.016823&#xA;&#x9;C149.840714,133.707001 137.731918,146.693192 125.623123,159.679398&#xA;&#x9;C125.338203,159.544205 125.053291,159.409027 124.768372,159.273834&#xA;&#x9;C126.759911,151.966141 128.745209,144.656723 130.744644,137.351196&#xA;&#x9;C132.950958,129.289810 131.945450,127.984512 123.489174,127.983452&#xA;&#x9;C113.857796,127.982239 104.226425,127.983162 93.331879,127.983162&#xA;&#x9;C99.950111,120.924713 105.874237,114.606529 112.048622,108.037560&#xA;z"></path>
</g>
</svg>